<mxfile host="app.diagrams.net" modified="2023-09-15T02:28:27.911Z" agent="Mozilla/5.0 (Windows NT 10.0; Win64; x64) AppleWebKit/537.36 (KHTML, like Gecko) Chrome/111.0.0.0 Safari/537.36" etag="cOzSaHKJzaJm5bxukbsq" version="21.7.5" type="github">
  <diagram name="第 1 页" id="LORR4SFLs2q2GYRJ1Kx6">
    <mxGraphModel dx="3934" dy="764" grid="1" gridSize="10" guides="1" tooltips="1" connect="1" arrows="1" fold="1" page="1" pageScale="1" pageWidth="2500" pageHeight="1600" math="0" shadow="0">
      <root>
        <mxCell id="0" />
        <mxCell id="1" parent="0" />
        <mxCell id="G3PUZL_0uWG9P7JHEBMm-6" style="edgeStyle=orthogonalEdgeStyle;rounded=0;orthogonalLoop=1;jettySize=auto;html=1;entryX=0.559;entryY=1.033;entryDx=0;entryDy=0;entryPerimeter=0;" parent="1" source="G3PUZL_0uWG9P7JHEBMm-1" target="G3PUZL_0uWG9P7JHEBMm-2" edge="1">
          <mxGeometry relative="1" as="geometry" />
        </mxCell>
        <mxCell id="bIy-OTbyKHSaHCoWtooy-21" style="edgeStyle=orthogonalEdgeStyle;rounded=0;orthogonalLoop=1;jettySize=auto;html=1;entryX=0.5;entryY=1;entryDx=0;entryDy=0;" edge="1" parent="1" source="G3PUZL_0uWG9P7JHEBMm-1" target="bIy-OTbyKHSaHCoWtooy-7">
          <mxGeometry relative="1" as="geometry">
            <Array as="points">
              <mxPoint x="550" y="170" />
              <mxPoint x="-25" y="170" />
            </Array>
          </mxGeometry>
        </mxCell>
        <mxCell id="bIy-OTbyKHSaHCoWtooy-22" style="edgeStyle=orthogonalEdgeStyle;rounded=0;orthogonalLoop=1;jettySize=auto;html=1;" edge="1" parent="1" source="G3PUZL_0uWG9P7JHEBMm-1" target="bIy-OTbyKHSaHCoWtooy-14">
          <mxGeometry relative="1" as="geometry">
            <Array as="points">
              <mxPoint x="550" y="170" />
              <mxPoint x="195" y="170" />
            </Array>
          </mxGeometry>
        </mxCell>
        <mxCell id="G3PUZL_0uWG9P7JHEBMm-1" value="ApplicationContext" style="rounded=0;whiteSpace=wrap;html=1;fillColor=#fff2cc;strokeColor=#d6b656;" parent="1" vertex="1">
          <mxGeometry x="440" y="190" width="220" height="30" as="geometry" />
        </mxCell>
        <mxCell id="G3PUZL_0uWG9P7JHEBMm-7" style="edgeStyle=orthogonalEdgeStyle;rounded=0;orthogonalLoop=1;jettySize=auto;html=1;entryX=0.536;entryY=1;entryDx=0;entryDy=0;entryPerimeter=0;" parent="1" source="G3PUZL_0uWG9P7JHEBMm-2" target="G3PUZL_0uWG9P7JHEBMm-4" edge="1">
          <mxGeometry relative="1" as="geometry" />
        </mxCell>
        <mxCell id="G3PUZL_0uWG9P7JHEBMm-2" value="ResourcePatternResolver" style="rounded=0;whiteSpace=wrap;html=1;fillColor=#fff2cc;strokeColor=#d6b656;" parent="1" vertex="1">
          <mxGeometry x="610" y="110" width="220" height="30" as="geometry" />
        </mxCell>
        <mxCell id="G3PUZL_0uWG9P7JHEBMm-4" value="ResourceLoader" style="rounded=0;whiteSpace=wrap;html=1;fillColor=#fff2cc;strokeColor=#d6b656;" parent="1" vertex="1">
          <mxGeometry x="780" y="40" width="220" height="30" as="geometry" />
        </mxCell>
        <mxCell id="G3PUZL_0uWG9P7JHEBMm-12" style="edgeStyle=orthogonalEdgeStyle;rounded=0;orthogonalLoop=1;jettySize=auto;html=1;entryX=0.532;entryY=1;entryDx=0;entryDy=0;entryPerimeter=0;dashed=1;fillColor=#dae8fc;strokeColor=#6c8ebf;" parent="1" source="G3PUZL_0uWG9P7JHEBMm-5" target="G3PUZL_0uWG9P7JHEBMm-4" edge="1">
          <mxGeometry relative="1" as="geometry" />
        </mxCell>
        <mxCell id="G3PUZL_0uWG9P7JHEBMm-5" value="DefaultResourceLoader" style="rounded=0;whiteSpace=wrap;html=1;fillColor=#fff2cc;strokeColor=#d6b656;" parent="1" vertex="1">
          <mxGeometry x="900" y="110" width="220" height="30" as="geometry" />
        </mxCell>
        <mxCell id="G3PUZL_0uWG9P7JHEBMm-8" value="&lt;font style=&quot;font-size: 14px;&quot; face=&quot;Verdana&quot;&gt;&lt;b&gt;I&lt;/b&gt;&lt;/font&gt;" style="ellipse;whiteSpace=wrap;html=1;aspect=fixed;fillColor=#d5e8d4;strokeColor=#82b366;" parent="1" vertex="1">
          <mxGeometry x="820" y="45" width="20" height="20" as="geometry" />
        </mxCell>
        <mxCell id="G3PUZL_0uWG9P7JHEBMm-9" value="&lt;font style=&quot;font-size: 14px;&quot; face=&quot;Verdana&quot;&gt;&lt;b&gt;I&lt;/b&gt;&lt;/font&gt;" style="ellipse;whiteSpace=wrap;html=1;aspect=fixed;fillColor=#d5e8d4;strokeColor=#82b366;" parent="1" vertex="1">
          <mxGeometry x="630" y="115" width="20" height="20" as="geometry" />
        </mxCell>
        <mxCell id="G3PUZL_0uWG9P7JHEBMm-10" value="&lt;font style=&quot;font-size: 14px;&quot; face=&quot;Verdana&quot;&gt;&lt;b&gt;I&lt;/b&gt;&lt;/font&gt;" style="ellipse;whiteSpace=wrap;html=1;aspect=fixed;fillColor=#d5e8d4;strokeColor=#82b366;" parent="1" vertex="1">
          <mxGeometry x="470" y="195" width="20" height="20" as="geometry" />
        </mxCell>
        <mxCell id="G3PUZL_0uWG9P7JHEBMm-13" value="&lt;font style=&quot;font-size: 14px;&quot; face=&quot;Verdana&quot;&gt;&lt;b&gt;c&lt;/b&gt;&lt;/font&gt;" style="ellipse;whiteSpace=wrap;html=1;aspect=fixed;fillColor=#dae8fc;strokeColor=#6c8ebf;" parent="1" vertex="1">
          <mxGeometry x="920" y="115" width="20" height="20" as="geometry" />
        </mxCell>
        <mxCell id="G3PUZL_0uWG9P7JHEBMm-14" value="Resource：资源" style="rounded=0;whiteSpace=wrap;html=1;fillColor=#d5e8d4;strokeColor=#82b366;" parent="1" vertex="1">
          <mxGeometry x="360" y="700" width="130" height="40" as="geometry" />
        </mxCell>
        <mxCell id="G3PUZL_0uWG9P7JHEBMm-17" style="edgeStyle=orthogonalEdgeStyle;rounded=0;orthogonalLoop=1;jettySize=auto;html=1;" parent="1" source="G3PUZL_0uWG9P7JHEBMm-15" target="G3PUZL_0uWG9P7JHEBMm-14" edge="1">
          <mxGeometry relative="1" as="geometry" />
        </mxCell>
        <mxCell id="G3PUZL_0uWG9P7JHEBMm-18" value="1.加载" style="edgeLabel;html=1;align=center;verticalAlign=middle;resizable=0;points=[];" parent="G3PUZL_0uWG9P7JHEBMm-17" vertex="1" connectable="0">
          <mxGeometry x="0.4" y="-2" relative="1" as="geometry">
            <mxPoint as="offset" />
          </mxGeometry>
        </mxCell>
        <mxCell id="G3PUZL_0uWG9P7JHEBMm-15" value="ResourceLoader" style="rounded=0;whiteSpace=wrap;html=1;fillColor=#CC99FF;strokeColor=#CC99FF;" parent="1" vertex="1">
          <mxGeometry x="560" y="700" width="130" height="40" as="geometry" />
        </mxCell>
        <mxCell id="G3PUZL_0uWG9P7JHEBMm-39" style="edgeStyle=orthogonalEdgeStyle;rounded=0;orthogonalLoop=1;jettySize=auto;html=1;entryX=1;entryY=0.5;entryDx=0;entryDy=0;dashed=1;" parent="1" source="G3PUZL_0uWG9P7JHEBMm-19" target="G3PUZL_0uWG9P7JHEBMm-15" edge="1">
          <mxGeometry relative="1" as="geometry" />
        </mxCell>
        <mxCell id="G3PUZL_0uWG9P7JHEBMm-19" value="DefaultResourceLoader" style="rounded=0;whiteSpace=wrap;html=1;fillColor=#E5CCFF;strokeColor=#9673a6;" parent="1" vertex="1">
          <mxGeometry x="730" y="700" width="130" height="40" as="geometry" />
        </mxCell>
        <mxCell id="G3PUZL_0uWG9P7JHEBMm-26" style="edgeStyle=orthogonalEdgeStyle;rounded=0;orthogonalLoop=1;jettySize=auto;html=1;entryX=0;entryY=0.25;entryDx=0;entryDy=0;fillColor=#dae8fc;strokeColor=#6c8ebf;" parent="1" source="G3PUZL_0uWG9P7JHEBMm-21" target="G3PUZL_0uWG9P7JHEBMm-14" edge="1">
          <mxGeometry relative="1" as="geometry" />
        </mxCell>
        <mxCell id="G3PUZL_0uWG9P7JHEBMm-21" value="WritableResource&amp;nbsp;" style="rounded=0;whiteSpace=wrap;html=1;fillColor=#d5e8d4;strokeColor=#82b366;" parent="1" vertex="1">
          <mxGeometry x="190" y="660" width="115" height="30" as="geometry" />
        </mxCell>
        <mxCell id="G3PUZL_0uWG9P7JHEBMm-24" style="edgeStyle=orthogonalEdgeStyle;rounded=0;orthogonalLoop=1;jettySize=auto;html=1;entryX=0;entryY=0.25;entryDx=0;entryDy=0;fillColor=#dae8fc;strokeColor=#6c8ebf;dashed=1;" parent="1" source="G3PUZL_0uWG9P7JHEBMm-22" target="G3PUZL_0uWG9P7JHEBMm-21" edge="1">
          <mxGeometry relative="1" as="geometry" />
        </mxCell>
        <mxCell id="G3PUZL_0uWG9P7JHEBMm-22" value="FileSystemResource&lt;br&gt;文件系统获取资源" style="rounded=0;whiteSpace=wrap;html=1;fillColor=#d5e8d4;strokeColor=#82b366;" parent="1" vertex="1">
          <mxGeometry x="30" y="630" width="115" height="30" as="geometry" />
        </mxCell>
        <mxCell id="G3PUZL_0uWG9P7JHEBMm-25" style="edgeStyle=orthogonalEdgeStyle;rounded=0;orthogonalLoop=1;jettySize=auto;html=1;entryX=0;entryY=0.25;entryDx=0;entryDy=0;fillColor=#dae8fc;strokeColor=#6c8ebf;dashed=1;" parent="1" source="G3PUZL_0uWG9P7JHEBMm-23" target="G3PUZL_0uWG9P7JHEBMm-21" edge="1">
          <mxGeometry relative="1" as="geometry" />
        </mxCell>
        <mxCell id="G3PUZL_0uWG9P7JHEBMm-23" value="FileUrlResource&lt;br&gt;统一资源定位符" style="rounded=0;whiteSpace=wrap;html=1;fillColor=#d5e8d4;strokeColor=#82b366;" parent="1" vertex="1">
          <mxGeometry x="30" y="690" width="115" height="30" as="geometry" />
        </mxCell>
        <mxCell id="G3PUZL_0uWG9P7JHEBMm-28" style="edgeStyle=orthogonalEdgeStyle;rounded=0;orthogonalLoop=1;jettySize=auto;html=1;entryX=0;entryY=0.25;entryDx=0;entryDy=0;fillColor=#dae8fc;strokeColor=#6c8ebf;" parent="1" source="G3PUZL_0uWG9P7JHEBMm-27" target="G3PUZL_0uWG9P7JHEBMm-14" edge="1">
          <mxGeometry relative="1" as="geometry" />
        </mxCell>
        <mxCell id="G3PUZL_0uWG9P7JHEBMm-27" value="ContextResource&amp;nbsp;&lt;br&gt;web环境获取资源" style="rounded=0;whiteSpace=wrap;html=1;fillColor=#d5e8d4;strokeColor=#82b366;" parent="1" vertex="1">
          <mxGeometry x="190" y="730" width="115" height="30" as="geometry" />
        </mxCell>
        <mxCell id="G3PUZL_0uWG9P7JHEBMm-30" style="edgeStyle=orthogonalEdgeStyle;rounded=0;orthogonalLoop=1;jettySize=auto;html=1;entryX=0;entryY=0.25;entryDx=0;entryDy=0;fillColor=#dae8fc;strokeColor=#6c8ebf;" parent="1" source="G3PUZL_0uWG9P7JHEBMm-29" target="G3PUZL_0uWG9P7JHEBMm-14" edge="1">
          <mxGeometry relative="1" as="geometry" />
        </mxCell>
        <mxCell id="G3PUZL_0uWG9P7JHEBMm-29" value="HttpResource&lt;br&gt;网络中获取资源" style="rounded=0;whiteSpace=wrap;html=1;fillColor=#d5e8d4;strokeColor=#82b366;" parent="1" vertex="1">
          <mxGeometry x="190" y="790" width="115" height="30" as="geometry" />
        </mxCell>
        <mxCell id="G3PUZL_0uWG9P7JHEBMm-32" style="edgeStyle=orthogonalEdgeStyle;rounded=0;orthogonalLoop=1;jettySize=auto;html=1;entryX=0;entryY=0.25;entryDx=0;entryDy=0;fillColor=#dae8fc;strokeColor=#6c8ebf;" parent="1" source="G3PUZL_0uWG9P7JHEBMm-31" target="G3PUZL_0uWG9P7JHEBMm-14" edge="1">
          <mxGeometry relative="1" as="geometry" />
        </mxCell>
        <mxCell id="G3PUZL_0uWG9P7JHEBMm-31" value="AbstractResouce" style="rounded=0;whiteSpace=wrap;html=1;fillColor=#d5e8d4;strokeColor=#82b366;" parent="1" vertex="1">
          <mxGeometry x="190" y="840" width="115" height="30" as="geometry" />
        </mxCell>
        <mxCell id="G3PUZL_0uWG9P7JHEBMm-35" style="edgeStyle=orthogonalEdgeStyle;rounded=0;orthogonalLoop=1;jettySize=auto;html=1;entryX=0;entryY=0.5;entryDx=0;entryDy=0;fillColor=#dae8fc;strokeColor=#6c8ebf;" parent="1" source="G3PUZL_0uWG9P7JHEBMm-33" target="G3PUZL_0uWG9P7JHEBMm-31" edge="1">
          <mxGeometry relative="1" as="geometry" />
        </mxCell>
        <mxCell id="G3PUZL_0uWG9P7JHEBMm-33" value="ByteArrayResource&lt;br&gt;从byte数组获取资源" style="rounded=0;whiteSpace=wrap;html=1;fillColor=#d5e8d4;strokeColor=#82b366;" parent="1" vertex="1">
          <mxGeometry x="30" y="830" width="115" height="30" as="geometry" />
        </mxCell>
        <mxCell id="G3PUZL_0uWG9P7JHEBMm-36" style="edgeStyle=orthogonalEdgeStyle;rounded=0;orthogonalLoop=1;jettySize=auto;html=1;entryX=0;entryY=0.5;entryDx=0;entryDy=0;fillColor=#dae8fc;strokeColor=#6c8ebf;" parent="1" source="G3PUZL_0uWG9P7JHEBMm-34" target="G3PUZL_0uWG9P7JHEBMm-31" edge="1">
          <mxGeometry relative="1" as="geometry" />
        </mxCell>
        <mxCell id="G3PUZL_0uWG9P7JHEBMm-34" value="InputStreamResource&lt;br&gt;从input流获取资源&lt;br&gt;" style="rounded=0;whiteSpace=wrap;html=1;fillColor=#d5e8d4;strokeColor=#82b366;" parent="1" vertex="1">
          <mxGeometry x="30" y="890" width="115" height="30" as="geometry" />
        </mxCell>
        <mxCell id="G3PUZL_0uWG9P7JHEBMm-37" value="spring可以从任何地方拿到资源" style="text;html=1;strokeColor=none;fillColor=none;align=center;verticalAlign=middle;whiteSpace=wrap;rounded=0;fontColor=#FF0000;" parent="1" vertex="1">
          <mxGeometry x="360" y="750" width="140" height="30" as="geometry" />
        </mxCell>
        <mxCell id="G3PUZL_0uWG9P7JHEBMm-40" value="策略模式" style="text;html=1;strokeColor=none;fillColor=none;align=center;verticalAlign=middle;whiteSpace=wrap;rounded=0;labelBackgroundColor=default;fontColor=#FF0000;fontStyle=1;fontSize=13;" parent="1" vertex="1">
          <mxGeometry x="570" y="670" width="60" height="30" as="geometry" />
        </mxCell>
        <mxCell id="G3PUZL_0uWG9P7JHEBMm-42" style="edgeStyle=orthogonalEdgeStyle;rounded=0;orthogonalLoop=1;jettySize=auto;html=1;entryX=1;entryY=0.25;entryDx=0;entryDy=0;fillColor=#dae8fc;strokeColor=#6c8ebf;" parent="1" source="G3PUZL_0uWG9P7JHEBMm-41" target="G3PUZL_0uWG9P7JHEBMm-19" edge="1">
          <mxGeometry relative="1" as="geometry" />
        </mxCell>
        <mxCell id="G3PUZL_0uWG9P7JHEBMm-41" value="ClassRelativeResourceLoader :读取类路径的资源" style="rounded=0;whiteSpace=wrap;html=1;fillColor=#CCCCFF;strokeColor=#9673a6;" parent="1" vertex="1">
          <mxGeometry x="920" y="660" width="280" height="30" as="geometry" />
        </mxCell>
        <mxCell id="G3PUZL_0uWG9P7JHEBMm-45" style="edgeStyle=orthogonalEdgeStyle;rounded=0;orthogonalLoop=1;jettySize=auto;html=1;entryX=1;entryY=0.25;entryDx=0;entryDy=0;fillColor=#dae8fc;strokeColor=#6c8ebf;" parent="1" source="G3PUZL_0uWG9P7JHEBMm-43" target="G3PUZL_0uWG9P7JHEBMm-19" edge="1">
          <mxGeometry relative="1" as="geometry" />
        </mxCell>
        <mxCell id="G3PUZL_0uWG9P7JHEBMm-43" value="FileSystemResourceLoader :读取文件系统的资源" style="rounded=0;whiteSpace=wrap;html=1;fillColor=#CCCCFF;strokeColor=#9673a6;" parent="1" vertex="1">
          <mxGeometry x="920" y="720" width="280" height="30" as="geometry" />
        </mxCell>
        <mxCell id="G3PUZL_0uWG9P7JHEBMm-46" style="edgeStyle=orthogonalEdgeStyle;rounded=0;orthogonalLoop=1;jettySize=auto;html=1;entryX=1;entryY=0.25;entryDx=0;entryDy=0;fillColor=#dae8fc;strokeColor=#6c8ebf;" parent="1" source="G3PUZL_0uWG9P7JHEBMm-44" target="G3PUZL_0uWG9P7JHEBMm-19" edge="1">
          <mxGeometry relative="1" as="geometry" />
        </mxCell>
        <mxCell id="G3PUZL_0uWG9P7JHEBMm-44" value="ServletContextResourceLoader :读取web环境的资源" style="rounded=0;whiteSpace=wrap;html=1;fillColor=#CCCCFF;strokeColor=#9673a6;" parent="1" vertex="1">
          <mxGeometry x="920" y="770" width="280" height="30" as="geometry" />
        </mxCell>
        <mxCell id="bIy-OTbyKHSaHCoWtooy-3" value="资源" style="text;html=1;strokeColor=none;fillColor=none;align=center;verticalAlign=middle;whiteSpace=wrap;rounded=0;fontSize=20;fontStyle=1" vertex="1" parent="1">
          <mxGeometry x="30" y="560" width="60" height="30" as="geometry" />
        </mxCell>
        <mxCell id="bIy-OTbyKHSaHCoWtooy-5" value="BeanFactory" style="rounded=0;whiteSpace=wrap;html=1;fillColor=#ffe6cc;strokeColor=#d79b00;" vertex="1" parent="1">
          <mxGeometry x="110" y="40" width="220" height="30" as="geometry" />
        </mxCell>
        <mxCell id="bIy-OTbyKHSaHCoWtooy-6" value="&lt;font style=&quot;font-size: 14px;&quot; face=&quot;Verdana&quot;&gt;&lt;b&gt;I&lt;/b&gt;&lt;/font&gt;" style="ellipse;whiteSpace=wrap;html=1;aspect=fixed;fillColor=#d5e8d4;strokeColor=#82b366;" vertex="1" parent="1">
          <mxGeometry x="160" y="45" width="20" height="20" as="geometry" />
        </mxCell>
        <mxCell id="bIy-OTbyKHSaHCoWtooy-11" value="" style="group" vertex="1" connectable="0" parent="1">
          <mxGeometry x="-120" y="105" width="190" height="30" as="geometry" />
        </mxCell>
        <mxCell id="bIy-OTbyKHSaHCoWtooy-7" value="HierarchicalBeanFactory" style="rounded=0;whiteSpace=wrap;html=1;fillColor=#ffe6cc;strokeColor=#d79b00;" vertex="1" parent="bIy-OTbyKHSaHCoWtooy-11">
          <mxGeometry width="190" height="30" as="geometry" />
        </mxCell>
        <mxCell id="bIy-OTbyKHSaHCoWtooy-8" value="&lt;font style=&quot;font-size: 14px;&quot; face=&quot;Verdana&quot;&gt;&lt;b&gt;I&lt;/b&gt;&lt;/font&gt;" style="ellipse;whiteSpace=wrap;html=1;aspect=fixed;fillColor=#d5e8d4;strokeColor=#82b366;" vertex="1" parent="bIy-OTbyKHSaHCoWtooy-11">
          <mxGeometry x="7.157894736842105" y="5" width="17.894736842105264" height="17.894736842105264" as="geometry" />
        </mxCell>
        <mxCell id="bIy-OTbyKHSaHCoWtooy-12" style="edgeStyle=orthogonalEdgeStyle;rounded=0;orthogonalLoop=1;jettySize=auto;html=1;entryX=0.5;entryY=1;entryDx=0;entryDy=0;exitX=0.5;exitY=0;exitDx=0;exitDy=0;" edge="1" parent="1" source="bIy-OTbyKHSaHCoWtooy-7" target="bIy-OTbyKHSaHCoWtooy-5">
          <mxGeometry relative="1" as="geometry">
            <Array as="points">
              <mxPoint x="-25" y="85" />
              <mxPoint x="220" y="85" />
            </Array>
          </mxGeometry>
        </mxCell>
        <mxCell id="bIy-OTbyKHSaHCoWtooy-13" value="" style="group" vertex="1" connectable="0" parent="1">
          <mxGeometry x="110" y="105" width="190" height="30" as="geometry" />
        </mxCell>
        <mxCell id="bIy-OTbyKHSaHCoWtooy-14" value="ListableBeanFactory" style="rounded=0;whiteSpace=wrap;html=1;fillColor=#ffe6cc;strokeColor=#d79b00;" vertex="1" parent="bIy-OTbyKHSaHCoWtooy-13">
          <mxGeometry width="170" height="30" as="geometry" />
        </mxCell>
        <mxCell id="bIy-OTbyKHSaHCoWtooy-15" value="&lt;font style=&quot;font-size: 14px;&quot; face=&quot;Verdana&quot;&gt;&lt;b&gt;I&lt;/b&gt;&lt;/font&gt;" style="ellipse;whiteSpace=wrap;html=1;aspect=fixed;fillColor=#d5e8d4;strokeColor=#82b366;" vertex="1" parent="bIy-OTbyKHSaHCoWtooy-13">
          <mxGeometry x="7.157894736842105" y="5" width="17.894736842105264" height="17.894736842105264" as="geometry" />
        </mxCell>
        <mxCell id="bIy-OTbyKHSaHCoWtooy-16" style="edgeStyle=orthogonalEdgeStyle;rounded=0;orthogonalLoop=1;jettySize=auto;html=1;entryX=0.5;entryY=1;entryDx=0;entryDy=0;" edge="1" parent="1" source="bIy-OTbyKHSaHCoWtooy-14" target="bIy-OTbyKHSaHCoWtooy-5">
          <mxGeometry relative="1" as="geometry" />
        </mxCell>
        <mxCell id="bIy-OTbyKHSaHCoWtooy-17" value="" style="group" vertex="1" connectable="0" parent="1">
          <mxGeometry x="330" y="105" width="190" height="30" as="geometry" />
        </mxCell>
        <mxCell id="bIy-OTbyKHSaHCoWtooy-18" value="&amp;nbsp; &amp;nbsp; &amp;nbsp; &amp;nbsp; AutowireCapableBeanFactory" style="rounded=0;whiteSpace=wrap;html=1;fillColor=#ffe6cc;strokeColor=#d79b00;" vertex="1" parent="bIy-OTbyKHSaHCoWtooy-17">
          <mxGeometry width="190" height="30" as="geometry" />
        </mxCell>
        <mxCell id="bIy-OTbyKHSaHCoWtooy-19" value="&lt;font style=&quot;font-size: 14px;&quot; face=&quot;Verdana&quot;&gt;&lt;b&gt;I&lt;/b&gt;&lt;/font&gt;" style="ellipse;whiteSpace=wrap;html=1;aspect=fixed;fillColor=#d5e8d4;strokeColor=#82b366;" vertex="1" parent="bIy-OTbyKHSaHCoWtooy-17">
          <mxGeometry x="7.157894736842105" y="5" width="17.894736842105264" height="17.894736842105264" as="geometry" />
        </mxCell>
        <mxCell id="bIy-OTbyKHSaHCoWtooy-20" style="edgeStyle=orthogonalEdgeStyle;rounded=0;orthogonalLoop=1;jettySize=auto;html=1;entryX=0.5;entryY=1;entryDx=0;entryDy=0;" edge="1" parent="1" source="bIy-OTbyKHSaHCoWtooy-18" target="bIy-OTbyKHSaHCoWtooy-5">
          <mxGeometry relative="1" as="geometry">
            <Array as="points">
              <mxPoint x="425" y="85" />
              <mxPoint x="220" y="85" />
            </Array>
          </mxGeometry>
        </mxCell>
        <mxCell id="bIy-OTbyKHSaHCoWtooy-23" value="" style="group;fillColor=#fff2cc;strokeColor=#d6b656;" vertex="1" connectable="0" parent="1">
          <mxGeometry x="240" y="260" width="210" height="30" as="geometry" />
        </mxCell>
        <mxCell id="bIy-OTbyKHSaHCoWtooy-24" value="&amp;nbsp; &amp;nbsp; &amp;nbsp; &amp;nbsp; ConfigurableApplicationContext" style="rounded=0;whiteSpace=wrap;html=1;fillColor=#fff2cc;strokeColor=#d6b656;" vertex="1" parent="bIy-OTbyKHSaHCoWtooy-23">
          <mxGeometry width="210" height="30" as="geometry" />
        </mxCell>
        <mxCell id="bIy-OTbyKHSaHCoWtooy-25" value="&lt;font style=&quot;font-size: 14px;&quot; face=&quot;Verdana&quot;&gt;&lt;b&gt;I&lt;/b&gt;&lt;/font&gt;" style="ellipse;whiteSpace=wrap;html=1;aspect=fixed;fillColor=#d5e8d4;strokeColor=#82b366;" vertex="1" parent="bIy-OTbyKHSaHCoWtooy-23">
          <mxGeometry x="7.157894736842105" y="5" width="17.894736842105264" height="17.894736842105264" as="geometry" />
        </mxCell>
        <mxCell id="bIy-OTbyKHSaHCoWtooy-26" style="edgeStyle=orthogonalEdgeStyle;rounded=0;orthogonalLoop=1;jettySize=auto;html=1;entryX=0.5;entryY=1;entryDx=0;entryDy=0;" edge="1" parent="1" source="bIy-OTbyKHSaHCoWtooy-24" target="G3PUZL_0uWG9P7JHEBMm-1">
          <mxGeometry relative="1" as="geometry" />
        </mxCell>
        <mxCell id="bIy-OTbyKHSaHCoWtooy-27" value="" style="group;fillColor=#fff2cc;strokeColor=#d6b656;" vertex="1" connectable="0" parent="1">
          <mxGeometry x="180" y="400" width="210" height="30" as="geometry" />
        </mxCell>
        <mxCell id="bIy-OTbyKHSaHCoWtooy-28" value="&amp;nbsp; &amp;nbsp; &amp;nbsp; ClassPathXmlApplicationContext" style="rounded=0;whiteSpace=wrap;html=1;fillColor=#fff2cc;strokeColor=#d6b656;" vertex="1" parent="bIy-OTbyKHSaHCoWtooy-27">
          <mxGeometry width="210" height="30" as="geometry" />
        </mxCell>
        <mxCell id="bIy-OTbyKHSaHCoWtooy-29" value="&lt;font style=&quot;font-size: 14px;&quot; face=&quot;Verdana&quot;&gt;&lt;b&gt;C&lt;/b&gt;&lt;/font&gt;" style="ellipse;whiteSpace=wrap;html=1;aspect=fixed;fillColor=#dae8fc;strokeColor=#6c8ebf;" vertex="1" parent="bIy-OTbyKHSaHCoWtooy-27">
          <mxGeometry x="7.157894736842105" y="5" width="17.894736842105264" height="17.894736842105264" as="geometry" />
        </mxCell>
        <mxCell id="bIy-OTbyKHSaHCoWtooy-32" value="" style="group;fillColor=#fff2cc;strokeColor=#d6b656;" vertex="1" connectable="0" parent="1">
          <mxGeometry x="430" y="400" width="240" height="30" as="geometry" />
        </mxCell>
        <mxCell id="bIy-OTbyKHSaHCoWtooy-33" value="&amp;nbsp; &amp;nbsp; &amp;nbsp; AnnotatioinConfigApplicationContext" style="rounded=0;whiteSpace=wrap;html=1;fillColor=#fff2cc;strokeColor=#d6b656;" vertex="1" parent="bIy-OTbyKHSaHCoWtooy-32">
          <mxGeometry width="240" height="30" as="geometry" />
        </mxCell>
        <mxCell id="bIy-OTbyKHSaHCoWtooy-34" value="&lt;font style=&quot;font-size: 14px;&quot; face=&quot;Verdana&quot;&gt;&lt;b&gt;C&lt;/b&gt;&lt;/font&gt;" style="ellipse;whiteSpace=wrap;html=1;aspect=fixed;fillColor=#dae8fc;strokeColor=#6c8ebf;" vertex="1" parent="bIy-OTbyKHSaHCoWtooy-32">
          <mxGeometry x="7.157894736842105" y="5" width="17.894736842105264" height="17.894736842105264" as="geometry" />
        </mxCell>
        <mxCell id="bIy-OTbyKHSaHCoWtooy-37" value="" style="group;fillColor=#fff2cc;strokeColor=#d6b656;" vertex="1" connectable="0" parent="1">
          <mxGeometry x="240" y="330" width="210" height="30" as="geometry" />
        </mxCell>
        <mxCell id="bIy-OTbyKHSaHCoWtooy-38" value="AbstractApplicationContext" style="rounded=0;whiteSpace=wrap;html=1;fillColor=#fff2cc;strokeColor=#d6b656;" vertex="1" parent="bIy-OTbyKHSaHCoWtooy-37">
          <mxGeometry width="210" height="30" as="geometry" />
        </mxCell>
        <mxCell id="bIy-OTbyKHSaHCoWtooy-39" value="&lt;font style=&quot;font-size: 14px;&quot; face=&quot;Verdana&quot;&gt;&lt;b&gt;C&lt;/b&gt;&lt;/font&gt;" style="ellipse;whiteSpace=wrap;html=1;aspect=fixed;fillColor=#dae8fc;strokeColor=#6c8ebf;" vertex="1" parent="bIy-OTbyKHSaHCoWtooy-37">
          <mxGeometry x="7.157894736842105" y="5" width="17.894736842105264" height="17.894736842105264" as="geometry" />
        </mxCell>
        <mxCell id="bIy-OTbyKHSaHCoWtooy-40" style="edgeStyle=orthogonalEdgeStyle;rounded=0;orthogonalLoop=1;jettySize=auto;html=1;entryX=0.5;entryY=1;entryDx=0;entryDy=0;dashed=1;" edge="1" parent="1" source="bIy-OTbyKHSaHCoWtooy-38" target="bIy-OTbyKHSaHCoWtooy-24">
          <mxGeometry relative="1" as="geometry" />
        </mxCell>
        <mxCell id="bIy-OTbyKHSaHCoWtooy-42" style="edgeStyle=orthogonalEdgeStyle;rounded=0;orthogonalLoop=1;jettySize=auto;html=1;entryX=0.5;entryY=1;entryDx=0;entryDy=0;" edge="1" parent="1" source="bIy-OTbyKHSaHCoWtooy-28" target="bIy-OTbyKHSaHCoWtooy-38">
          <mxGeometry relative="1" as="geometry" />
        </mxCell>
        <mxCell id="bIy-OTbyKHSaHCoWtooy-43" style="edgeStyle=orthogonalEdgeStyle;rounded=0;orthogonalLoop=1;jettySize=auto;html=1;entryX=0.5;entryY=1;entryDx=0;entryDy=0;" edge="1" parent="1" source="bIy-OTbyKHSaHCoWtooy-33" target="bIy-OTbyKHSaHCoWtooy-38">
          <mxGeometry relative="1" as="geometry" />
        </mxCell>
        <mxCell id="bIy-OTbyKHSaHCoWtooy-44" style="edgeStyle=orthogonalEdgeStyle;rounded=0;orthogonalLoop=1;jettySize=auto;html=1;entryX=0.5;entryY=1;entryDx=0;entryDy=0;" edge="1" parent="1" source="bIy-OTbyKHSaHCoWtooy-38" target="G3PUZL_0uWG9P7JHEBMm-5">
          <mxGeometry relative="1" as="geometry" />
        </mxCell>
        <mxCell id="bIy-OTbyKHSaHCoWtooy-45" value="定义父子工厂（父子容器）" style="text;html=1;strokeColor=none;fillColor=none;align=center;verticalAlign=middle;whiteSpace=wrap;rounded=0;fontColor=#007FFF;" vertex="1" parent="1">
          <mxGeometry x="-140" y="140" width="90" height="30" as="geometry" />
        </mxCell>
        <mxCell id="bIy-OTbyKHSaHCoWtooy-46" value="" style="group" vertex="1" connectable="0" parent="1">
          <mxGeometry x="100" y="190" width="200" height="30" as="geometry" />
        </mxCell>
        <mxCell id="bIy-OTbyKHSaHCoWtooy-47" value="&amp;nbsp; &amp;nbsp; &amp;nbsp; DefaultListableBeanFactory" style="rounded=0;whiteSpace=wrap;html=1;fillColor=#ffe6cc;strokeColor=#d79b00;" vertex="1" parent="bIy-OTbyKHSaHCoWtooy-46">
          <mxGeometry width="200" height="30" as="geometry" />
        </mxCell>
        <mxCell id="bIy-OTbyKHSaHCoWtooy-48" value="&lt;font style=&quot;font-size: 14px;&quot; face=&quot;Verdana&quot;&gt;&lt;b&gt;c&lt;/b&gt;&lt;/font&gt;" style="ellipse;whiteSpace=wrap;html=1;aspect=fixed;fillColor=#dae8fc;strokeColor=#6c8ebf;" vertex="1" parent="bIy-OTbyKHSaHCoWtooy-46">
          <mxGeometry x="7.157894736842105" y="5" width="17.894736842105264" height="17.894736842105264" as="geometry" />
        </mxCell>
        <mxCell id="bIy-OTbyKHSaHCoWtooy-50" style="edgeStyle=orthogonalEdgeStyle;rounded=0;orthogonalLoop=1;jettySize=auto;html=1;dashed=1;fillColor=#dae8fc;strokeColor=#6c8ebf;" edge="1" parent="1" source="bIy-OTbyKHSaHCoWtooy-47" target="bIy-OTbyKHSaHCoWtooy-14">
          <mxGeometry relative="1" as="geometry">
            <mxPoint x="220" y="140" as="targetPoint" />
            <Array as="points">
              <mxPoint x="200" y="163" />
              <mxPoint x="210" y="163" />
            </Array>
          </mxGeometry>
        </mxCell>
        <mxCell id="bIy-OTbyKHSaHCoWtooy-51" value="保存ioc容器中的核心信息" style="text;html=1;strokeColor=none;fillColor=none;align=center;verticalAlign=middle;whiteSpace=wrap;rounded=0;fontColor=#007FFF;" vertex="1" parent="1">
          <mxGeometry x="100" y="220" width="90" height="30" as="geometry" />
        </mxCell>
        <mxCell id="bIy-OTbyKHSaHCoWtooy-53" value="提供自动装配能力" style="text;html=1;strokeColor=none;fillColor=none;align=center;verticalAlign=middle;whiteSpace=wrap;rounded=0;fontColor=#007FFF;" vertex="1" parent="1">
          <mxGeometry x="435" y="75" width="90" height="30" as="geometry" />
        </mxCell>
        <mxCell id="bIy-OTbyKHSaHCoWtooy-54" value="组合一个总的注册中心，它有自动装配能力" style="text;html=1;strokeColor=none;fillColor=none;align=center;verticalAlign=middle;whiteSpace=wrap;rounded=0;fontColor=#007FFF;" vertex="1" parent="1">
          <mxGeometry x="435" y="430" width="140" height="30" as="geometry" />
        </mxCell>
        <mxCell id="bIy-OTbyKHSaHCoWtooy-59" value="" style="rounded=0;whiteSpace=wrap;html=1;container=1;" vertex="1" collapsed="1" parent="1">
          <mxGeometry x="950" y="395" width="150" height="40" as="geometry">
            <mxRectangle x="1160" y="370" width="520" height="335" as="alternateBounds" />
          </mxGeometry>
        </mxCell>
        <mxCell id="bIy-OTbyKHSaHCoWtooy-68" value="&amp;nbsp; &amp;nbsp; &amp;nbsp;AbstractApplicationContext" style="rounded=0;whiteSpace=wrap;html=1;fillColor=#fff2cc;strokeColor=#d6b656;fontColor=#FF0000;" vertex="1" parent="bIy-OTbyKHSaHCoWtooy-59">
          <mxGeometry x="40.004888888888786" y="150" width="207.99999999999997" height="30" as="geometry" />
        </mxCell>
        <mxCell id="bIy-OTbyKHSaHCoWtooy-90" value="" style="group" vertex="1" connectable="0" parent="bIy-OTbyKHSaHCoWtooy-59">
          <mxGeometry x="31.38488888888885" y="25" width="485.3333333333333" height="280" as="geometry" />
        </mxCell>
        <mxCell id="bIy-OTbyKHSaHCoWtooy-61" value="&amp;nbsp; &amp;nbsp; &amp;nbsp; &amp;nbsp; &amp;nbsp; &amp;nbsp;BeanFactory" style="rounded=0;whiteSpace=wrap;html=1;fillColor=#ffe6cc;strokeColor=#d79b00;" vertex="1" parent="bIy-OTbyKHSaHCoWtooy-90">
          <mxGeometry x="46.222222222222214" width="358.2222222222222" height="30" as="geometry" />
        </mxCell>
        <mxCell id="bIy-OTbyKHSaHCoWtooy-62" value="&lt;font style=&quot;font-size: 14px;&quot; face=&quot;Verdana&quot;&gt;&lt;b&gt;I&lt;/b&gt;&lt;/font&gt;" style="ellipse;whiteSpace=wrap;html=1;aspect=fixed;fillColor=#d5e8d4;strokeColor=#82b366;" vertex="1" parent="bIy-OTbyKHSaHCoWtooy-90">
          <mxGeometry x="150.2222222222222" y="5" width="20" height="20" as="geometry" />
        </mxCell>
        <mxCell id="bIy-OTbyKHSaHCoWtooy-63" value="" style="group" vertex="1" connectable="0" parent="bIy-OTbyKHSaHCoWtooy-90">
          <mxGeometry x="103.99999999999999" y="60" width="219.55555555555554" height="30" as="geometry" />
        </mxCell>
        <mxCell id="bIy-OTbyKHSaHCoWtooy-64" value="ListableBeanFactory" style="rounded=0;whiteSpace=wrap;html=1;fillColor=#ffe6cc;strokeColor=#d79b00;" vertex="1" parent="bIy-OTbyKHSaHCoWtooy-63">
          <mxGeometry width="196.44444444444443" height="30" as="geometry" />
        </mxCell>
        <mxCell id="bIy-OTbyKHSaHCoWtooy-65" value="&lt;font style=&quot;font-size: 14px;&quot; face=&quot;Verdana&quot;&gt;&lt;b&gt;I&lt;/b&gt;&lt;/font&gt;" style="ellipse;whiteSpace=wrap;html=1;aspect=fixed;fillColor=#d5e8d4;strokeColor=#82b366;" vertex="1" parent="bIy-OTbyKHSaHCoWtooy-63">
          <mxGeometry x="8.271345029239765" y="5" width="17.894736842105264" height="17.894736842105264" as="geometry" />
        </mxCell>
        <mxCell id="bIy-OTbyKHSaHCoWtooy-66" style="edgeStyle=orthogonalEdgeStyle;rounded=0;orthogonalLoop=1;jettySize=auto;html=1;entryX=0.432;entryY=1;entryDx=0;entryDy=0;entryPerimeter=0;" edge="1" parent="bIy-OTbyKHSaHCoWtooy-90" source="bIy-OTbyKHSaHCoWtooy-64" target="bIy-OTbyKHSaHCoWtooy-61">
          <mxGeometry relative="1" as="geometry" />
        </mxCell>
        <mxCell id="bIy-OTbyKHSaHCoWtooy-70" value="" style="group;fillColor=#fff2cc;strokeColor=#d6b656;" vertex="1" connectable="0" parent="bIy-OTbyKHSaHCoWtooy-90">
          <mxGeometry x="254.2222222222222" y="130" width="231.1111111111111" height="30" as="geometry" />
        </mxCell>
        <mxCell id="bIy-OTbyKHSaHCoWtooy-71" value="&amp;nbsp; &amp;nbsp; &amp;nbsp; DefaultListableBeanFactory" style="rounded=0;whiteSpace=wrap;html=1;fillColor=#fff2cc;strokeColor=#d6b656;" vertex="1" parent="bIy-OTbyKHSaHCoWtooy-70">
          <mxGeometry width="231.1111111111111" height="30" as="geometry" />
        </mxCell>
        <mxCell id="bIy-OTbyKHSaHCoWtooy-72" value="&lt;font style=&quot;font-size: 14px;&quot; face=&quot;Verdana&quot;&gt;&lt;b&gt;c&lt;/b&gt;&lt;/font&gt;" style="ellipse;whiteSpace=wrap;html=1;aspect=fixed;fillColor=#dae8fc;strokeColor=#6c8ebf;" vertex="1" parent="bIy-OTbyKHSaHCoWtooy-70">
          <mxGeometry x="8.271345029239765" y="5" width="17.894736842105264" height="17.894736842105264" as="geometry" />
        </mxCell>
        <mxCell id="bIy-OTbyKHSaHCoWtooy-74" style="edgeStyle=orthogonalEdgeStyle;rounded=0;orthogonalLoop=1;jettySize=auto;html=1;dashed=1;fillColor=#dae8fc;strokeColor=#6c8ebf;" edge="1" parent="bIy-OTbyKHSaHCoWtooy-90" source="bIy-OTbyKHSaHCoWtooy-71" target="bIy-OTbyKHSaHCoWtooy-61">
          <mxGeometry relative="1" as="geometry">
            <Array as="points">
              <mxPoint x="369.7777777777777" y="50" />
              <mxPoint x="369.7777777777777" y="50" />
            </Array>
          </mxGeometry>
        </mxCell>
        <mxCell id="bIy-OTbyKHSaHCoWtooy-76" style="edgeStyle=orthogonalEdgeStyle;rounded=0;orthogonalLoop=1;jettySize=auto;html=1;dashed=1;fillColor=#dae8fc;strokeColor=#6c8ebf;" edge="1" parent="bIy-OTbyKHSaHCoWtooy-90" source="bIy-OTbyKHSaHCoWtooy-71" target="bIy-OTbyKHSaHCoWtooy-64">
          <mxGeometry relative="1" as="geometry" />
        </mxCell>
        <mxCell id="bIy-OTbyKHSaHCoWtooy-77" value="" style="group;fillColor=#fff2cc;strokeColor=#d6b656;" vertex="1" connectable="0" parent="bIy-OTbyKHSaHCoWtooy-90">
          <mxGeometry y="210" width="277.3333333333333" height="30" as="geometry" />
        </mxCell>
        <mxCell id="bIy-OTbyKHSaHCoWtooy-78" value="&amp;nbsp; &amp;nbsp; &amp;nbsp; AnnotatioinConfigApplicationContext" style="rounded=0;whiteSpace=wrap;html=1;fillColor=#fff2cc;strokeColor=#d6b656;" vertex="1" parent="bIy-OTbyKHSaHCoWtooy-77">
          <mxGeometry width="277.3333333333333" height="30" as="geometry" />
        </mxCell>
        <mxCell id="bIy-OTbyKHSaHCoWtooy-79" value="&lt;font style=&quot;font-size: 14px;&quot; face=&quot;Verdana&quot;&gt;&lt;b&gt;C&lt;/b&gt;&lt;/font&gt;" style="ellipse;whiteSpace=wrap;html=1;aspect=fixed;fillColor=#dae8fc;strokeColor=#6c8ebf;" vertex="1" parent="bIy-OTbyKHSaHCoWtooy-77">
          <mxGeometry x="8.271345029239765" y="5" width="17.894736842105264" height="17.894736842105264" as="geometry" />
        </mxCell>
        <mxCell id="bIy-OTbyKHSaHCoWtooy-83" value="" style="group;fillColor=#fff2cc;strokeColor=#d6b656;" vertex="1" connectable="0" parent="bIy-OTbyKHSaHCoWtooy-90">
          <mxGeometry x="231.1111111111111" y="250" width="242.66666666666666" height="30" as="geometry" />
        </mxCell>
        <mxCell id="bIy-OTbyKHSaHCoWtooy-84" value="&amp;nbsp; &amp;nbsp; &amp;nbsp; ClassPathXmlApplicationContext" style="rounded=0;whiteSpace=wrap;html=1;fillColor=#fff2cc;strokeColor=#d6b656;" vertex="1" parent="bIy-OTbyKHSaHCoWtooy-83">
          <mxGeometry width="242.66666666666666" height="30" as="geometry" />
        </mxCell>
        <mxCell id="bIy-OTbyKHSaHCoWtooy-85" value="&lt;font style=&quot;font-size: 14px;&quot; face=&quot;Verdana&quot;&gt;&lt;b&gt;C&lt;/b&gt;&lt;/font&gt;" style="ellipse;whiteSpace=wrap;html=1;aspect=fixed;fillColor=#dae8fc;strokeColor=#6c8ebf;" vertex="1" parent="bIy-OTbyKHSaHCoWtooy-83">
          <mxGeometry x="8.271345029239765" y="5" width="17.894736842105264" height="17.894736842105264" as="geometry" />
        </mxCell>
        <mxCell id="bIy-OTbyKHSaHCoWtooy-91" value="&lt;font style=&quot;font-size: 18px;&quot;&gt;&lt;b&gt;bean工厂&lt;/b&gt;&lt;/font&gt;" style="text;html=1;strokeColor=none;fillColor=none;align=center;verticalAlign=middle;whiteSpace=wrap;rounded=0;" vertex="1" parent="bIy-OTbyKHSaHCoWtooy-59">
          <mxGeometry x="24.930000000000064" width="90" height="30" as="geometry" />
        </mxCell>
        <mxCell id="bIy-OTbyKHSaHCoWtooy-73" style="edgeStyle=orthogonalEdgeStyle;rounded=0;orthogonalLoop=1;jettySize=auto;html=1;dashed=1;fillColor=#dae8fc;strokeColor=#6c8ebf;" edge="1" parent="bIy-OTbyKHSaHCoWtooy-59" source="bIy-OTbyKHSaHCoWtooy-68" target="bIy-OTbyKHSaHCoWtooy-61">
          <mxGeometry relative="1" as="geometry">
            <Array as="points">
              <mxPoint x="112.27377777777767" y="125" />
              <mxPoint x="112.27377777777767" y="125" />
            </Array>
          </mxGeometry>
        </mxCell>
        <mxCell id="bIy-OTbyKHSaHCoWtooy-75" style="edgeStyle=orthogonalEdgeStyle;rounded=0;orthogonalLoop=1;jettySize=auto;html=1;entryX=0.424;entryY=0.933;entryDx=0;entryDy=0;entryPerimeter=0;dashed=1;fillColor=#dae8fc;strokeColor=#6c8ebf;" edge="1" parent="bIy-OTbyKHSaHCoWtooy-59" source="bIy-OTbyKHSaHCoWtooy-68" target="bIy-OTbyKHSaHCoWtooy-64">
          <mxGeometry relative="1" as="geometry" />
        </mxCell>
        <mxCell id="bIy-OTbyKHSaHCoWtooy-86" style="edgeStyle=orthogonalEdgeStyle;rounded=0;orthogonalLoop=1;jettySize=auto;html=1;" edge="1" parent="bIy-OTbyKHSaHCoWtooy-59" source="bIy-OTbyKHSaHCoWtooy-78" target="bIy-OTbyKHSaHCoWtooy-68">
          <mxGeometry relative="1" as="geometry" />
        </mxCell>
        <mxCell id="bIy-OTbyKHSaHCoWtooy-87" style="edgeStyle=orthogonalEdgeStyle;rounded=0;orthogonalLoop=1;jettySize=auto;html=1;entryX=0.75;entryY=1;entryDx=0;entryDy=0;" edge="1" parent="bIy-OTbyKHSaHCoWtooy-59" source="bIy-OTbyKHSaHCoWtooy-84" target="bIy-OTbyKHSaHCoWtooy-68">
          <mxGeometry relative="1" as="geometry">
            <Array as="points">
              <mxPoint x="384.3848888888888" y="225" />
              <mxPoint x="196.38488888888878" y="225" />
            </Array>
          </mxGeometry>
        </mxCell>
        <mxCell id="bIy-OTbyKHSaHCoWtooy-69" value="&lt;font style=&quot;font-size: 14px;&quot; face=&quot;Verdana&quot;&gt;&lt;b&gt;C&lt;/b&gt;&lt;/font&gt;" style="ellipse;whiteSpace=wrap;html=1;aspect=fixed;fillColor=#dae8fc;strokeColor=#6c8ebf;" vertex="1" parent="bIy-OTbyKHSaHCoWtooy-59">
          <mxGeometry x="62.26461319966573" y="157.32999999999998" width="15.338345864661655" height="15.338345864661655" as="geometry" />
        </mxCell>
        <mxCell id="bIy-OTbyKHSaHCoWtooy-60" style="edgeStyle=orthogonalEdgeStyle;rounded=0;orthogonalLoop=1;jettySize=auto;html=1;" edge="1" parent="1" source="bIy-OTbyKHSaHCoWtooy-33" target="bIy-OTbyKHSaHCoWtooy-59">
          <mxGeometry relative="1" as="geometry" />
        </mxCell>
        <mxCell id="bIy-OTbyKHSaHCoWtooy-95" value="" style="edgeStyle=orthogonalEdgeStyle;rounded=0;orthogonalLoop=1;jettySize=auto;html=1;" edge="1" parent="1" source="bIy-OTbyKHSaHCoWtooy-93" target="bIy-OTbyKHSaHCoWtooy-94">
          <mxGeometry relative="1" as="geometry" />
        </mxCell>
        <mxCell id="bIy-OTbyKHSaHCoWtooy-93" value="new ClassPathXmlApplicationContext(&quot;beans.xml&quot;)" style="rounded=0;whiteSpace=wrap;html=1;" vertex="1" parent="1">
          <mxGeometry x="100" y="1030" width="310" height="50" as="geometry" />
        </mxCell>
        <mxCell id="bIy-OTbyKHSaHCoWtooy-101" value="" style="edgeStyle=orthogonalEdgeStyle;rounded=0;orthogonalLoop=1;jettySize=auto;html=1;" edge="1" parent="1" source="bIy-OTbyKHSaHCoWtooy-94" target="bIy-OTbyKHSaHCoWtooy-100">
          <mxGeometry relative="1" as="geometry" />
        </mxCell>
        <mxCell id="bIy-OTbyKHSaHCoWtooy-94" value="AbstractApplicationContext#refresh()" style="rounded=0;whiteSpace=wrap;html=1;" vertex="1" parent="1">
          <mxGeometry x="100" y="1130" width="310" height="50" as="geometry" />
        </mxCell>
        <mxCell id="bIy-OTbyKHSaHCoWtooy-96" value="容器开始刷新" style="text;html=1;strokeColor=none;fillColor=none;align=center;verticalAlign=middle;whiteSpace=wrap;rounded=0;" vertex="1" parent="1">
          <mxGeometry x="20" y="1140" width="60" height="30" as="geometry" />
        </mxCell>
        <mxCell id="bIy-OTbyKHSaHCoWtooy-105" value="" style="edgeStyle=orthogonalEdgeStyle;rounded=0;orthogonalLoop=1;jettySize=auto;html=1;" edge="1" parent="1" source="bIy-OTbyKHSaHCoWtooy-100" target="bIy-OTbyKHSaHCoWtooy-104">
          <mxGeometry relative="1" as="geometry" />
        </mxCell>
        <mxCell id="bIy-OTbyKHSaHCoWtooy-100" value="AbstractApplicationContext#obtainFreshBeanFactory()" style="rounded=0;whiteSpace=wrap;html=1;" vertex="1" parent="1">
          <mxGeometry x="100" y="1250" width="310" height="50" as="geometry" />
        </mxCell>
        <mxCell id="bIy-OTbyKHSaHCoWtooy-102" value="第一次开始创建Bean Factory" style="text;html=1;strokeColor=none;fillColor=none;align=center;verticalAlign=middle;whiteSpace=wrap;rounded=0;" vertex="1" parent="1">
          <mxGeometry x="10" y="1260" width="80" height="30" as="geometry" />
        </mxCell>
        <mxCell id="bIy-OTbyKHSaHCoWtooy-108" value="" style="edgeStyle=orthogonalEdgeStyle;rounded=0;orthogonalLoop=1;jettySize=auto;html=1;" edge="1" parent="1" source="bIy-OTbyKHSaHCoWtooy-104" target="bIy-OTbyKHSaHCoWtooy-107">
          <mxGeometry relative="1" as="geometry" />
        </mxCell>
        <mxCell id="bIy-OTbyKHSaHCoWtooy-104" value="AbstractRefreshableApplicationContext#refreshBeanFactory()" style="rounded=0;whiteSpace=wrap;html=1;" vertex="1" parent="1">
          <mxGeometry x="85" y="1360" width="340" height="50" as="geometry" />
        </mxCell>
        <mxCell id="bIy-OTbyKHSaHCoWtooy-106" value="刷新整个beanFactory" style="text;html=1;strokeColor=none;fillColor=none;align=center;verticalAlign=middle;whiteSpace=wrap;rounded=0;" vertex="1" parent="1">
          <mxGeometry x="5" y="1370" width="80" height="30" as="geometry" />
        </mxCell>
        <mxCell id="bIy-OTbyKHSaHCoWtooy-113" value="" style="edgeStyle=orthogonalEdgeStyle;rounded=0;orthogonalLoop=1;jettySize=auto;html=1;" edge="1" parent="1" source="bIy-OTbyKHSaHCoWtooy-107" target="bIy-OTbyKHSaHCoWtooy-112">
          <mxGeometry relative="1" as="geometry" />
        </mxCell>
        <mxCell id="bIy-OTbyKHSaHCoWtooy-107" value="AbstractXmlApplicationContext#loadBeanDefinitions()" style="rounded=0;whiteSpace=wrap;html=1;" vertex="1" parent="1">
          <mxGeometry x="85" y="1470" width="340" height="50" as="geometry" />
        </mxCell>
        <mxCell id="bIy-OTbyKHSaHCoWtooy-111" value="加载bean定义信息" style="text;html=1;strokeColor=none;fillColor=none;align=center;verticalAlign=middle;whiteSpace=wrap;rounded=0;" vertex="1" parent="1">
          <mxGeometry x="5" y="1480" width="80" height="30" as="geometry" />
        </mxCell>
        <mxCell id="bIy-OTbyKHSaHCoWtooy-116" value="" style="edgeStyle=orthogonalEdgeStyle;rounded=0;orthogonalLoop=1;jettySize=auto;html=1;" edge="1" parent="1" source="bIy-OTbyKHSaHCoWtooy-112" target="bIy-OTbyKHSaHCoWtooy-115">
          <mxGeometry relative="1" as="geometry" />
        </mxCell>
        <mxCell id="bIy-OTbyKHSaHCoWtooy-112" value="DefaultBeanDefinitionDocumentReader#registerBeanDefinitions()" style="rounded=0;whiteSpace=wrap;html=1;" vertex="1" parent="1">
          <mxGeometry x="67.5" y="1590" width="375" height="50" as="geometry" />
        </mxCell>
        <mxCell id="bIy-OTbyKHSaHCoWtooy-114" value="开始注册bean定义信息" style="text;html=1;strokeColor=none;fillColor=none;align=center;verticalAlign=middle;whiteSpace=wrap;rounded=0;" vertex="1" parent="1">
          <mxGeometry x="-12.5" y="1600" width="80" height="30" as="geometry" />
        </mxCell>
        <mxCell id="bIy-OTbyKHSaHCoWtooy-119" style="edgeStyle=orthogonalEdgeStyle;rounded=0;orthogonalLoop=1;jettySize=auto;html=1;entryX=0.355;entryY=0;entryDx=0;entryDy=0;entryPerimeter=0;" edge="1" parent="1" source="bIy-OTbyKHSaHCoWtooy-115" target="bIy-OTbyKHSaHCoWtooy-117">
          <mxGeometry relative="1" as="geometry" />
        </mxCell>
        <mxCell id="bIy-OTbyKHSaHCoWtooy-121" style="edgeStyle=orthogonalEdgeStyle;rounded=0;orthogonalLoop=1;jettySize=auto;html=1;" edge="1" parent="1" source="bIy-OTbyKHSaHCoWtooy-115" target="bIy-OTbyKHSaHCoWtooy-118">
          <mxGeometry relative="1" as="geometry">
            <Array as="points">
              <mxPoint x="520" y="1715" />
              <mxPoint x="520" y="1780" />
              <mxPoint x="628" y="1780" />
            </Array>
          </mxGeometry>
        </mxCell>
        <mxCell id="bIy-OTbyKHSaHCoWtooy-115" value="DefaultBeanDefinitionDocumentReader#processorBeanDefinition()" style="rounded=0;whiteSpace=wrap;html=1;" vertex="1" parent="1">
          <mxGeometry x="67.5" y="1690" width="375" height="50" as="geometry" />
        </mxCell>
        <mxCell id="bIy-OTbyKHSaHCoWtooy-120" style="edgeStyle=orthogonalEdgeStyle;rounded=0;orthogonalLoop=1;jettySize=auto;html=1;entryX=0.668;entryY=0.98;entryDx=0;entryDy=0;entryPerimeter=0;" edge="1" parent="1" source="bIy-OTbyKHSaHCoWtooy-117" target="bIy-OTbyKHSaHCoWtooy-115">
          <mxGeometry relative="1" as="geometry">
            <Array as="points">
              <mxPoint x="138" y="1800" />
              <mxPoint x="318" y="1800" />
            </Array>
          </mxGeometry>
        </mxCell>
        <mxCell id="bIy-OTbyKHSaHCoWtooy-128" style="edgeStyle=orthogonalEdgeStyle;rounded=0;orthogonalLoop=1;jettySize=auto;html=1;" edge="1" parent="1" source="bIy-OTbyKHSaHCoWtooy-117" target="bIy-OTbyKHSaHCoWtooy-127">
          <mxGeometry relative="1" as="geometry" />
        </mxCell>
        <mxCell id="bIy-OTbyKHSaHCoWtooy-117" value="DefaultBeanDefinitionDocumentReader#parseBeanDefinitionElement()" style="rounded=0;whiteSpace=wrap;html=1;" vertex="1" parent="1">
          <mxGeometry x="-50" y="1820" width="375" height="50" as="geometry" />
        </mxCell>
        <mxCell id="bIy-OTbyKHSaHCoWtooy-131" style="edgeStyle=orthogonalEdgeStyle;rounded=0;orthogonalLoop=1;jettySize=auto;html=1;" edge="1" parent="1" source="bIy-OTbyKHSaHCoWtooy-118" target="bIy-OTbyKHSaHCoWtooy-130">
          <mxGeometry relative="1" as="geometry" />
        </mxCell>
        <mxCell id="bIy-OTbyKHSaHCoWtooy-118" value="BeanDefinitionReaderUtils#registerBeanDefinition()" style="rounded=0;whiteSpace=wrap;html=1;" vertex="1" parent="1">
          <mxGeometry x="440" y="1820" width="375" height="50" as="geometry" />
        </mxCell>
        <mxCell id="bIy-OTbyKHSaHCoWtooy-123" value="pos1" style="text;html=1;strokeColor=#6c8ebf;fillColor=#dae8fc;align=center;verticalAlign=middle;whiteSpace=wrap;rounded=0;" vertex="1" parent="1">
          <mxGeometry x="315" y="1810" width="60" height="30" as="geometry" />
        </mxCell>
        <mxCell id="bIy-OTbyKHSaHCoWtooy-125" value="pos2" style="text;html=1;strokeColor=#6c8ebf;fillColor=#dae8fc;align=center;verticalAlign=middle;whiteSpace=wrap;rounded=0;" vertex="1" parent="1">
          <mxGeometry x="390" y="1810" width="60" height="30" as="geometry" />
        </mxCell>
        <mxCell id="bIy-OTbyKHSaHCoWtooy-126" value="pos1处的返回值作为pos2处的参数" style="text;html=1;strokeColor=none;fillColor=none;align=center;verticalAlign=middle;whiteSpace=wrap;rounded=0;" vertex="1" parent="1">
          <mxGeometry x="550" y="1740" width="80" height="30" as="geometry" />
        </mxCell>
        <mxCell id="bIy-OTbyKHSaHCoWtooy-129" style="edgeStyle=orthogonalEdgeStyle;rounded=0;orthogonalLoop=1;jettySize=auto;html=1;" edge="1" parent="1" source="bIy-OTbyKHSaHCoWtooy-127" target="bIy-OTbyKHSaHCoWtooy-117">
          <mxGeometry relative="1" as="geometry">
            <Array as="points">
              <mxPoint x="170" y="1940" />
              <mxPoint x="170" y="1940" />
            </Array>
          </mxGeometry>
        </mxCell>
        <mxCell id="bIy-OTbyKHSaHCoWtooy-127" value="BeanDefinitionReaderUtils#createBeanDefinition()" style="rounded=0;whiteSpace=wrap;html=1;" vertex="1" parent="1">
          <mxGeometry x="-50" y="1960" width="375" height="50" as="geometry" />
        </mxCell>
        <mxCell id="bIy-OTbyKHSaHCoWtooy-130" value="DefaultListableBeanFactory#registerBeanDefinition()" style="rounded=0;whiteSpace=wrap;html=1;" vertex="1" parent="1">
          <mxGeometry x="440" y="1960" width="375" height="50" as="geometry" />
        </mxCell>
        <mxCell id="bIy-OTbyKHSaHCoWtooy-132" value="在这里new一个GenericBeanDefinition" style="text;html=1;strokeColor=none;fillColor=none;align=center;verticalAlign=middle;whiteSpace=wrap;rounded=0;" vertex="1" parent="1">
          <mxGeometry x="-20" y="2010" width="180" height="30" as="geometry" />
        </mxCell>
        <mxCell id="bIy-OTbyKHSaHCoWtooy-133" value="最终在这里将bean定义信息放进BeanDefinitionMap注册中心" style="text;html=1;strokeColor=none;fillColor=none;align=center;verticalAlign=middle;whiteSpace=wrap;rounded=0;" vertex="1" parent="1">
          <mxGeometry x="465" y="2020" width="320" height="30" as="geometry" />
        </mxCell>
      </root>
    </mxGraphModel>
  </diagram>
</mxfile>
